<?xml version="1.0" encoding="UTF-8" standalone="no" ?>
<!DOCTYPE svg PUBLIC "-//W3C//DTD SVG 1.1//EN" "http://www.w3.org/Graphics/SVG/1.1/DTD/svg11.dtd">
<svg xmlns="http://www.w3.org/2000/svg" xmlns:xlink="http://www.w3.org/1999/xlink" version="1.1" width="512" height="512" viewBox="0 0 512 512" xml:space="preserve">
<desc>Created with Fabric.js 5.3.0</desc>
<defs>
</defs>
<g transform="matrix(0 -6.86 6.86 0 256 256)" id="Oa-uFmilZHAopnEKTcZzc"  >
<linearGradient id="SVGID_34" gradientUnits="userSpaceOnUse" gradientTransform="matrix(1 0 0 1 -37.3177842566 -37.3177842566)"  x1="0" y1="37.31778425655977" x2="74.63556851311955" y2="37.31778425655977">
<stop offset="0%" style="stop-color:#3E3AA4;stop-opacity: 1"/>
<stop offset="100%" style="stop-color:#6B6AC9;stop-opacity: 1"/>
</linearGradient>
<path style="stroke: rgb(166,115,99); stroke-width: 0; stroke-dasharray: none; stroke-linecap: butt; stroke-dashoffset: 0; stroke-linejoin: miter; stroke-miterlimit: 4; fill: url(#SVGID_34); fill-rule: nonzero; opacity: 1;"  transform=" translate(0, 0)" d="M -37.31778 -37.31778 L 37.31779 -37.31778 L 37.31779 37.31779 L -37.31778 37.31779 z" stroke-linecap="round" />
</g>
<g transform="matrix(1.2267742386 0 0 1.2267742386 256 256)" id="Z3AFo-0XL702FJaYN5Pjv"  >
<path style="stroke: none; stroke-width: 1; stroke-dasharray: none; stroke-linecap: butt; stroke-dashoffset: 0; stroke-linejoin: miter; stroke-miterlimit: 4; fill: rgb(255,255,255); fill-rule: nonzero; opacity: 1;"  transform=" translate(0, 0)" d="M -95.584 82.36 C -105.94667 82.36 -115.49733 80.31067 -124.236 76.212 C -132.97467 72.11333 -140.12800000000001 66.352 -145.696 58.928000000000004 L -145.696 58.928000000000004 L -128.528 38.28 C -119.55733 50.65333 -108.80799999999999 56.84 -96.28 56.84 L -96.28 56.84 C -79.42133 56.84 -70.992 46.864000000000004 -70.992 26.912000000000003 L -70.992 26.912000000000003 L -70.992 -57.07199999999999 L -128.76 -57.07199999999999 L -128.76 -82.35999999999999 L -40.831999999999994 -82.35999999999999 L -40.831999999999994 25.28800000000001 C -40.831999999999994 44.31200000000001 -45.471999999999994 58.58000000000001 -54.751999999999995 68.09200000000001 C -64.032 77.60400000000001 -77.64267 82.36000000000001 -95.584 82.36000000000001 z M 116.464 -4.408 C 125.43467 -1.4693300000000002 132.54933 3.44133 137.808 10.323999999999998 C 143.06667 17.20667 145.696 25.752 145.696 35.959999999999994 L 145.696 35.959999999999994 C 145.696 50.03466999999999 140.28267 60.89999999999999 129.456 68.55599999999998 C 118.62932999999998 76.21199999999999 102.85332999999999 80.03999999999998 82.12799999999999 80.03999999999998 L 82.12799999999999 80.03999999999998 L 1.3919999999999817 80.03999999999998 L 1.3919999999999817 -82.36000000000003 L 77.48799999999999 -82.36000000000003 C 96.66666999999998 -82.36000000000003 111.43732999999999 -78.60933000000003 121.79999999999998 -71.10800000000003 C 132.16267 -63.60667000000003 137.344 -53.28267000000003 137.344 -40.13600000000003 L 137.344 -40.13600000000003 C 137.344 -32.09333000000003 135.488 -24.97867000000003 131.77599999999998 -18.79200000000003 C 128.064 -12.60533000000003 122.95999999999998 -7.81067000000003 116.46399999999998 -4.40800000000003 z M 74.24 -58.696 L 31.551999999999992 -58.696 L 31.551999999999992 -13.919999999999995 L 74.24 -13.919999999999995 C 84.75733 -13.919999999999995 92.83867 -15.814669999999994 98.484 -19.603999999999996 C 104.12933 -23.393329999999995 106.952 -28.922669999999997 106.952 -36.19199999999999 L 106.952 -36.19199999999999 C 106.952 -43.61599999999999 104.12933 -49.222669999999994 98.484 -53.01199999999999 C 92.83867 -56.80132999999999 84.75733 -58.69599999999999 74.24 -58.69599999999999 z M 80.272 56.376 C 103.62667 56.376 115.304 48.565329999999996 115.304 32.944 L 115.304 32.944 C 115.304 17.322670000000002 103.62667 9.512000000000004 80.272 9.512000000000004 L 80.272 9.512000000000004 L 31.552000000000007 9.512000000000004 L 31.552000000000007 56.376000000000005 z" stroke-linecap="round" />
</g>
</svg>